<?xml version="1.0" encoding="UTF-8"?>
<svg width="21px" height="21px" viewBox="0 0 21 21" version="1.1" xmlns="http://www.w3.org/2000/svg" xmlns:xlink="http://www.w3.org/1999/xlink">
    <!-- Generator: Sketch 52.5 (67469) - http://www.bohemiancoding.com/sketch -->
    <title>Controlled Med@1x</title>
    <desc>Created with Sketch.</desc>
    <g id="HealtheraPOD-_-Platform-29-11-18" stroke="none" stroke-width="1" fill="none" fill-rule="evenodd">
        <g id="Dashboard---Detailed-Order---Expanded" transform="translate(-239.000000, -494.000000)">
            <g id="Group" transform="translate(90.000000, 410.000000)">
                <g id="Controlled-Med" transform="translate(149.000000, 84.000000)">
                    <rect id="Rectangle" fill="#2F84B0" fill-rule="nonzero" x="0" y="0" width="21" height="21" rx="10.5"></rect>
                    <path d="M10.2084961,15.6166992 C7.61230469,15.6166992 6,13.7758789 6,10.8115234 C6,7.83447266 7.60595703,6 10.2021484,6 C12.2841797,6 13.8901367,7.35839844 14.0805664,9.26904297 L12.4682617,9.26904297 C12.2397461,8.17089844 11.3574219,7.45996094 10.2021484,7.45996094 C8.64697266,7.45996094 7.67578125,8.7421875 7.67578125,10.8051758 C7.67578125,12.8745117 8.64697266,14.1567383 10.2084961,14.1567383 C11.3701172,14.1567383 12.2524414,13.5092773 12.4746094,12.480957 L14.0869141,12.480957 C13.8710938,14.3535156 12.3222656,15.6166992 10.2084961,15.6166992 Z" id="C" fill="#FFFFFF"></path>
                </g>
            </g>
        </g>
    </g>
</svg>