<?xml version="1.0" encoding="UTF-8"?>
<svg width="18px" height="33px" viewBox="0 0 18 33" version="1.1" xmlns="http://www.w3.org/2000/svg" xmlns:xlink="http://www.w3.org/1999/xlink">
    <!-- Generator: Sketch 52.6 (67491) - http://www.bohemiancoding.com/sketch -->
    <title>filter</title>
    <desc>Created with Sketch.</desc>
    <defs>
        <polygon id="path-1" points="0.08148 0.666733333 16.11648 0.666733333 16.11648 3.33333333 0.08148 3.33333333"></polygon>
    </defs>
    <g id="HealtheraPOD-_-Platform-08-01-19" stroke="none" stroke-width="1" fill="none" fill-rule="evenodd">
        <g id="Dashboard---Filter" transform="translate(-1077.000000, -129.000000)">
            <g id="Main_Nav_bar" transform="translate(90.000000, 110.000000)">
                <g id="filter" transform="translate(987.000000, 19.000000)">
                    <g id="Filter_Icon">
                        <path d="M16.78038,10.5716667 L9.05658,10.5716667 C8.39358,10.5716667 7.85658,9.97433333 7.85658,9.23833333 C7.85658,8.50233333 8.39358,7.905 9.05658,7.905 L16.78038,7.905 C17.44278,7.905 17.98038,8.50233333 17.98038,9.23833333 C17.98038,9.97433333 17.44278,10.5716667 16.78038,10.5716667" id="Fill-1" fill="#FFFFFF"></path>
                        <path d="M14.91648,17.9287333 L1.28148,17.9287333 C0.61848,17.9287333 0.08148,17.3314 0.08148,16.5954 C0.08148,15.8594 0.61848,15.2620667 1.28148,15.2620667 L14.91648,15.2620667 C15.57888,15.2620667 16.11648,15.8594 16.11648,16.5954 C16.11648,17.3314 15.57888,17.9287333 14.91648,17.9287333" id="Fill-4" fill="#FFFFFF"></path>
                        <path d="M1.2,12.764 C0.993,12.764 0.786,12.7046667 0.6,12.5853333 C0.2286,12.3473333 0,11.9066667 0,11.4306667 L0,7.046 C0,6.56933333 0.2286,6.12933333 0.6,5.89133333 C0.9714,5.65266667 1.4286,5.65266667 1.8,5.89133333 L5.2176,8.08333333 C5.589,8.32133333 5.8176,8.762 5.8176,9.238 C5.8176,9.71466667 5.589,10.1546667 5.2176,10.3926667 L1.8,12.5853333 C1.614,12.7046667 1.407,12.764 1.2,12.764" id="Fill-6" fill="#FFFFFF"></path>
                        <mask id="mask-2" fill="white">
                            <use xlink:href="#path-1"></use>
                        </mask>
                        <g id="Clip-9"></g>
                        <path d="M14.91648,3.33333333 L1.28148,3.33333333 C0.61848,3.33333333 0.08148,2.736 0.08148,2 C0.08148,1.264 0.61848,0.666666667 1.28148,0.666666667 L14.91648,0.666666667 C15.57888,0.666666667 16.11648,1.264 16.11648,2 C16.11648,2.736 15.57888,3.33333333 14.91648,3.33333333" id="Fill-8" fill="#FFFFFF" mask="url(#mask-2)"></path>
                    </g>
                    <circle id="dot" fill="#FFFFFF" fill-rule="nonzero" cx="8.5" cy="29.5" r="3.5"></circle>
                </g>
            </g>
        </g>
    </g>
</svg>