<svg xmlns="http://www.w3.org/2000/svg" xmlns:xlink="http://www.w3.org/1999/xlink" width="21" height="20" viewBox="0 0 21 20">
    <defs>
        <path id="a" d="M0 .142h20.872v19.591H0z"/>
    </defs>
    <g fill="none" fill-rule="evenodd">
        <path fill="#575756" d="M14.613 7.936h-7.26a.67.67 0 0 0-.674.667.67.67 0 0 0 .673.666h7.261a.67.67 0 0 0 .673-.666.67.67 0 0 0-.673-.667M14.613 10.855h-7.26a.67.67 0 0 0-.674.667.67.67 0 0 0 .673.667h7.261a.67.67 0 0 0 .673-.667.67.67 0 0 0-.673-.667"/>
        <g transform="translate(0 .125)">
            <mask id="b" fill="#fff">
                <use xlink:href="#a"/>
            </mask>
            <path fill="#575756" d="M10.983 18.4c-2.653 0-4.565-1.305-4.582-1.317a.677.677 0 0 0-.475-.118l-4 .508 1.588-2.762a.662.662 0 0 0 .039-.581c-.31-.754-1.114-2.976-1.114-4.192 0-4.667 3.833-8.463 8.544-8.463 4.71 0 8.543 3.796 8.543 8.463 0 4.666-3.832 8.462-8.543 8.462m0-18.258c-5.454 0-9.89 4.394-9.89 9.796 0 1.415.785 3.59 1.093 4.39L.088 17.974a.662.662 0 0 0 .026.701c.142.21.392.324.645.29l5.094-.646a10.192 10.192 0 0 0 5.13 1.414c5.453 0 9.89-4.394 9.89-9.795 0-5.402-4.437-9.796-9.89-9.796" mask="url(#b)"/>
        </g>
    </g>
</svg>
