<?xml version="1.0" encoding="UTF-8"?>
<svg width="23px" height="20px" viewBox="0 0 23 20" version="1.1" xmlns="http://www.w3.org/2000/svg" xmlns:xlink="http://www.w3.org/1999/xlink">
    <!-- Generator: Sketch 52.5 (67469) - http://www.bohemiancoding.com/sketch -->
    <title>Group 10@2x</title>
    <desc>Created with Sketch.</desc>
    <defs>
        <polygon id="path-1" points="0 0.0365675676 22.9889189 0.0365675676 22.9889189 19.7297297 0 19.7297297"></polygon>
    </defs>
    <g id="HealtheraPOD-_-Platform-29-11-18" stroke="none" stroke-width="1" fill="none" fill-rule="evenodd">
        <g id="Dashboard---Detailed-Order---Expanded" transform="translate(-661.000000, -435.000000)">
            <g id="Group-10" transform="translate(661.000000, 435.000000)">
                <path d="M10.2118108,7.834 L15.9096486,7.834 C16.2828919,7.834 16.5853243,7.53156757 16.5853243,7.15832432 C16.5853243,6.78508108 16.2828919,6.48264865 15.9096486,6.48264865 L10.2118108,6.48264865 C9.83856757,6.48264865 9.53613514,6.78508108 9.53613514,7.15832432 C9.53613514,7.53156757 9.83856757,7.834 10.2118108,7.834" id="Fill-1" fill="#575756"></path>
                <path d="M10.2118108,10.7924595 L15.9096486,10.7924595 C16.2828919,10.7924595 16.5853243,10.490027 16.5853243,10.1167838 C16.5853243,9.74354054 16.2828919,9.44110811 15.9096486,9.44110811 L10.2118108,9.44110811 C9.83856757,9.44110811 9.53613514,9.74354054 9.53613514,10.1167838 C9.53613514,10.490027 9.83856757,10.7924595 10.2118108,10.7924595" id="Fill-3" fill="#575756"></path>
                <path d="M16.5853243,13.0752432 C16.5853243,12.702 16.2828919,12.3995676 15.9096486,12.3995676 L10.2118108,12.3995676 C9.83856757,12.3995676 9.53613514,12.702 9.53613514,13.0752432 C9.53613514,13.4484865 9.83856757,13.7509189 10.2118108,13.7509189 L15.9096486,13.7509189 C16.2828919,13.7509189 16.5853243,13.4484865 16.5853243,13.0752432" id="Fill-5" fill="#575756"></path>
                <g id="Group-9" transform="translate(0.000000, 0.233703)">
                    <mask id="mask-2" fill="white">
                        <use xlink:href="#path-1"></use>
                    </mask>
                    <g id="Clip-8"></g>
                    <path d="M13.1422973,0.0365675676 C7.71283784,0.0365675676 3.29581081,4.45359459 3.29581081,9.88305405 L3.29581081,11.2798108 L1.15337838,9.13737838 C0.889864865,8.87359459 0.461756757,8.87359459 0.197972973,9.13737838 C-0.0660810811,9.40143243 -0.0660810811,9.829 0.197972973,10.0927838 L3.49310811,13.3879189 C3.52445946,13.4192703 3.55905405,13.4476486 3.59581081,13.4722432 C3.60391892,13.4779189 3.61310811,13.4814324 3.62121622,13.4862973 C3.65040541,13.5041351 3.67986486,13.5211622 3.71175676,13.5346757 C3.72472973,13.5398108 3.73878378,13.5425135 3.75202703,13.5471081 C3.78013514,13.5568378 3.80797297,13.5671081 3.83797297,13.5730541 C3.88148649,13.581973 3.92608108,13.5865676 3.97148649,13.5865676 C4.01662162,13.5865676 4.06121622,13.581973 4.105,13.5730541 C4.135,13.5671081 4.16310811,13.5568378 4.19148649,13.5468378 C4.20445946,13.5422432 4.21824324,13.5398108 4.23121622,13.5346757 C4.26283784,13.5211622 4.29256757,13.5041351 4.32175676,13.486027 C4.33013514,13.4811622 4.33905405,13.4779189 4.34716216,13.4722432 C4.38391892,13.4476486 4.41851351,13.4192703 4.44986486,13.3879189 L7.74472973,10.0927838 C8.00878378,9.829 8.00878378,9.40116216 7.74472973,9.13737838 C7.48121622,8.87359459 7.05310811,8.87359459 6.78932432,9.13737838 L4.64716216,11.2798108 L4.64716216,9.88305405 C4.64716216,5.19872973 8.45797297,1.38791892 13.1422973,1.38791892 C17.8266216,1.38791892 21.6377027,5.19872973 21.6377027,9.88305405 C21.6377027,14.5673784 17.8266216,18.3784595 13.1422973,18.3784595 C12.7690541,18.3784595 12.4666216,18.6808919 12.4666216,19.0541351 C12.4666216,19.4273784 12.7690541,19.7298108 13.1422973,19.7298108 C18.5717568,19.7298108 22.9890541,15.3125135 22.9890541,9.88305405 C22.9890541,4.45359459 18.5717568,0.0365675676 13.1422973,0.0365675676" id="Fill-7" fill="#575756" mask="url(#mask-2)"></path>
                </g>
            </g>
        </g>
    </g>
</svg>